<svg width="9" height="10" viewBox="0 0 9 10" fill="none" xmlns="http://www.w3.org/2000/svg">
<path d="M4.08335 8.24999C4.89688 8.24982 5.68697 7.97748 6.32781 7.47632L8.34265 9.49116L8.99073 8.84307L6.9759 6.82824C7.47731 6.18734 7.74982 5.39707 7.75002 4.58332C7.75002 2.56161 6.10506 0.916656 4.08335 0.916656C2.06165 0.916656 0.416687 2.56161 0.416687 4.58332C0.416687 6.60503 2.06165 8.24999 4.08335 8.24999ZM4.08335 1.83332C5.59998 1.83332 6.83335 3.0667 6.83335 4.58332C6.83335 6.09995 5.59998 7.33332 4.08335 7.33332C2.56673 7.33332 1.33335 6.09995 1.33335 4.58332C1.33335 3.0667 2.56673 1.83332 4.08335 1.83332Z" fill="#BCBCBC"/>
</svg>
