<svg width="37" height="19" viewBox="0 0 37 19" fill="none" xmlns="http://www.w3.org/2000/svg">
<rect x="0.5" y="0.5" width="36" height="18" rx="3" fill="#FF0000"/>
<mask id="mask0_31_170" style="mask-type:alpha" maskUnits="userSpaceOnUse" x="8" y="2" width="21" height="15">
<path d="M28.4963 10.1731C28.5082 10.2748 28.4914 10.3773 28.447 10.474C28.4026 10.5707 28.3315 10.6595 28.2383 10.7348C28.145 10.81 28.0317 10.8701 27.9054 10.9113C27.7791 10.9524 27.6426 10.9737 27.5046 10.9737H25.6035C25.3394 10.9737 25.0862 10.8961 24.8995 10.7579C24.7127 10.6197 24.6078 10.4323 24.6078 10.2368V3.23684C24.6078 3.04142 24.7127 2.854 24.8995 2.71582C25.0862 2.57763 25.3394 2.5 25.6035 2.5H26.6817C26.9309 2.49996 27.1711 2.56907 27.3548 2.69369C27.5385 2.81831 27.6523 2.98938 27.6739 3.17311L28.4963 10.1731ZM21.621 10.4671C21.621 10.7751 21.3621 11.0507 20.9862 11.1818C20.1653 11.4685 18.767 12.0443 18.1363 12.8228C17.3233 13.8264 17.17 15.6394 17.1451 16.0546C17.1416 16.1128 17.1436 16.171 17.1332 16.2285C16.9983 16.948 15.122 16.1076 14.4026 15.219C14.0119 14.7371 13.9621 14.1038 14.0029 13.609C14.0472 13.0799 14.2568 12.5689 14.4624 12.0613L14.9005 10.9792L9.49569 10.9792C9.34186 10.9792 9.19013 10.9528 9.05238 10.9022C8.91464 10.8515 8.79464 10.7779 8.7018 10.6871C8.60895 10.5963 8.54579 10.4909 8.51727 10.379C8.48874 10.2671 8.49563 10.1519 8.5374 10.0423L11.2107 3.03642C11.2697 2.88191 11.3953 2.74589 11.5683 2.64906C11.7414 2.55223 11.9525 2.49989 12.1695 2.5H20.6253C20.8894 2.5 21.1426 2.57763 21.3293 2.71582C21.5161 2.854 21.621 3.04142 21.621 3.23684V10.4671Z" fill="white" stroke="white" stroke-linecap="round" stroke-linejoin="round"/>
</mask>
<g mask="url(#mask0_31_170)">
<path d="M30.5816 18.3421L6.68651 18.3421L6.68651 0.657875L30.5816 0.657875L30.5816 18.3421Z" fill="black"/>
</g>
</svg>
