<svg width="37" height="19" viewBox="0 0 37 19" fill="none" xmlns="http://www.w3.org/2000/svg">
<rect x="0.5" y="0.5" width="36" height="18" rx="3" fill="#1EDA00"/>
<mask id="mask0_31_725" style="mask-type:alpha" maskUnits="userSpaceOnUse" x="8" y="2" width="21" height="14">
<path d="M8.50373 8.37497C8.4918 8.2805 8.50857 8.18536 8.55298 8.09558C8.59739 8.0058 8.66847 7.92334 8.76171 7.85344C8.85495 7.78354 8.96832 7.72772 9.09462 7.68953C9.22092 7.65134 9.35739 7.6316 9.49538 7.63158H11.3965C11.6606 7.63158 11.9138 7.70366 12.1005 7.83198C12.2873 7.96029 12.3922 8.13432 12.3922 8.31579V14.8158C12.3922 14.9973 12.2873 15.1713 12.1005 15.2996C11.9138 15.4279 11.6606 15.5 11.3965 15.5H10.3183C10.0691 15.5 9.82892 15.4359 9.64523 15.3201C9.46154 15.2044 9.34768 15.0456 9.32612 14.875L8.50373 8.37497V8.37497ZM15.379 8.10197C15.379 7.81597 15.6379 7.56008 16.0138 7.43829C16.8347 7.17213 18.233 6.63742 18.8637 5.91455C19.6767 4.98266 19.83 3.29916 19.8549 2.9136C19.8584 2.85955 19.8564 2.8055 19.8668 2.75213C20.0017 2.084 21.878 2.86434 22.5974 3.6895C22.9881 4.13697 23.0379 4.72505 22.9971 5.1845C22.9528 5.67576 22.7432 6.15026 22.5376 6.62168L22.0995 7.62645H27.5043C27.6581 7.62644 27.8099 7.65093 27.9476 7.69799C28.0854 7.74505 28.2054 7.81341 28.2982 7.8977C28.391 7.98198 28.4542 8.07991 28.4827 8.18379C28.5113 8.28767 28.5044 8.39468 28.4626 8.49642L25.7893 15.0019C25.7303 15.1454 25.6047 15.2717 25.4317 15.3616C25.2586 15.4515 25.0475 15.5001 24.8305 15.5H16.3747C16.1106 15.5 15.8574 15.4279 15.6707 15.2996C15.4839 15.1713 15.379 14.9973 15.379 14.8158V8.10197Z" fill="white" stroke="white" stroke-linecap="round" stroke-linejoin="round"/>
</mask>
<g mask="url(#mask0_31_725)">
<path d="M6.4184 0.78949H30.3135V17.2105H6.4184V0.78949Z" fill="black"/>
</g>
</svg>
