<svg width="51" height="44" viewBox="0 0 51 44" fill="none" xmlns="http://www.w3.org/2000/svg">
<path d="M0 15.7143C0 12.2473 2.81875 9.42857 6.28571 9.42857H6.44286C7.16964 5.84375 10.342 3.14286 14.1429 3.14286C15.6161 3.14286 16.9911 3.54554 18.1598 4.24286C19.4661 1.72857 22.108 0 25.1429 0C28.1777 0 30.8196 1.72857 32.1259 4.24286C33.2946 3.54554 34.6696 3.14286 36.1429 3.14286C39.9437 3.14286 43.1161 5.84375 43.8429 9.42857H44C47.467 9.42857 50.2857 12.2473 50.2857 15.7143C50.2857 16.8634 49.9812 17.9339 49.4411 18.8571H0.844643C0.304464 17.9339 0 16.8634 0 15.7143ZM0 24.6911C0 23.208 1.20804 22 2.69107 22H47.5946C49.0777 22 50.2857 23.208 50.2857 24.6911C50.2857 31.6152 45.925 37.5277 39.8062 39.8259L39.6295 41.25C39.433 42.8214 38.0973 44 36.5063 44H13.7696C12.1884 44 10.8429 42.8214 10.6464 41.25L10.4696 39.8357C4.36071 37.5277 0 31.6152 0 24.6911Z" fill="black"/>
</svg>
