<svg width="42" height="42" viewBox="0 0 42 42" fill="none" xmlns="http://www.w3.org/2000/svg">
<path d="M33.1632 8.82516C40.7757 16.4377 41.4975 28.0402 34.7775 34.7602C28.0575 41.4802 16.455 40.7583 8.84254 33.1458C1.23004 25.5333 0.508164 13.9308 7.22816 7.22391C13.9482 0.517033 25.5507 1.22578 33.1632 8.82516V8.82516Z" fill="#757400"/>
<path d="M20.3796 13.1957C17.1771 12.0013 15.1821 9.37634 15.9565 7.31572C16.7177 5.26822 19.9334 4.57259 23.149 5.75384C26.3646 6.93509 28.3465 9.57322 27.5721 11.6338C26.7977 13.6945 23.5952 14.3901 20.3796 13.1957V13.1957Z" fill="#9E9D02"/>
<path d="M13.1215 18.9315C14.6636 18.9315 16.1425 18.3189 17.2329 17.2285C18.3233 16.1381 18.9359 14.6592 18.9359 13.1171C18.9359 11.575 18.3233 10.0961 17.2329 9.00573C16.1425 7.91532 14.6636 7.30273 13.1215 7.30273C11.5794 7.30273 10.1005 7.91532 9.01012 9.00573C7.91971 10.0961 7.30713 11.575 7.30713 13.1171C7.30713 14.6592 7.91971 16.1381 9.01012 17.2285C10.1005 18.3189 11.5794 18.9315 13.1215 18.9315V18.9315Z" fill="#B00200"/>
</svg>
