<svg width="6" height="6" viewBox="0 0 6 6" fill="none" xmlns="http://www.w3.org/2000/svg">
<path d="M2.55514 0.245605C2.67562 0.245605 2.79117 0.293468 2.87637 0.378665C2.96157 0.463862 3.00943 0.579413 3.00943 0.699899V2.33596L4.42622 1.51763C4.53051 1.45834 4.65401 1.4427 4.76979 1.47413C4.88556 1.50556 4.9842 1.58151 5.04419 1.6854C5.10417 1.78929 5.12062 1.91269 5.08996 2.02867C5.0593 2.14465 4.98401 2.24379 4.88051 2.30447L3.46372 3.1228L4.88051 3.94083C4.98401 4.0015 5.0593 4.10065 5.08996 4.21663C5.12062 4.3326 5.10417 4.456 5.04419 4.5599C4.9842 4.66379 4.88556 4.73974 4.76979 4.77117C4.65401 4.8026 4.53051 4.78696 4.42622 4.72767L3.00943 3.90994V5.5457C3.00943 5.66619 2.96157 5.78174 2.87637 5.86693C2.79117 5.95213 2.67562 5.99999 2.55514 5.99999C2.43465 5.99999 2.3191 5.95213 2.2339 5.86693C2.1487 5.78174 2.10084 5.66619 2.10084 5.5457V3.90964L0.684051 4.72797C0.632365 4.75827 0.575197 4.77805 0.515837 4.78617C0.456477 4.79428 0.396098 4.79058 0.338176 4.77526C0.280254 4.75995 0.225932 4.73333 0.17834 4.69694C0.130747 4.66054 0.0908236 4.6151 0.0608668 4.56321C0.03091 4.51133 0.011512 4.45403 0.00378959 4.39462C-0.00393277 4.3352 0.000173023 4.27485 0.0158706 4.21703C0.0315681 4.15921 0.0585474 4.10507 0.0952551 4.05772C0.131963 4.01037 0.177674 3.97075 0.229757 3.94113L1.64655 3.1228L0.229757 2.30477C0.126266 2.2441 0.0509731 2.14495 0.0203101 2.02897C-0.010353 1.913 0.00610275 1.7896 0.0660862 1.6857C0.12607 1.58181 0.224711 1.50586 0.340484 1.47443C0.456258 1.443 0.579764 1.45864 0.684051 1.51793L2.10084 2.33566V0.699899C2.10084 0.579413 2.1487 0.463862 2.2339 0.378665C2.3191 0.293468 2.43465 0.245605 2.55514 0.245605Z" fill="#FF0000"/>
</svg>
