<svg width="42" height="42" viewBox="0 0 42 42" fill="none" xmlns="http://www.w3.org/2000/svg">
<path d="M33.1632 8.82516C40.7757 16.4377 41.4975 28.0402 34.7775 34.7602C28.0575 41.4802 16.455 40.7583 8.84254 33.1458C1.23004 25.5333 0.508164 13.9308 7.22816 7.22391C13.9482 0.517033 25.5507 1.22578 33.1632 8.82516V8.82516Z" fill="#757400"/>
<path d="M20.3791 13.1957C17.1766 12.0013 15.1816 9.37634 15.956 7.31572C16.7173 5.26822 19.9329 4.57259 23.1485 5.75384C26.3641 6.93509 28.346 9.57322 27.5716 11.6338C26.7973 13.6945 23.5948 14.3901 20.3791 13.1957V13.1957Z" fill="#9E9D02"/>
<path d="M13.121 18.9315C14.6631 18.9315 16.142 18.3189 17.2324 17.2285C18.3228 16.1381 18.9354 14.6592 18.9354 13.1171C18.9354 11.575 18.3228 10.0961 17.2324 9.00573C16.142 7.91532 14.6631 7.30273 13.121 7.30273C11.5789 7.30273 10.1 7.91532 9.00963 9.00573C7.91922 10.0961 7.30664 11.575 7.30664 13.1171C7.30664 14.6592 7.91922 16.1381 9.00963 17.2285C10.1 18.3189 11.5789 18.9315 13.121 18.9315V18.9315Z" fill="#B00200"/>
</svg>
