<svg width="36" height="19" viewBox="0 0 36 19" fill="none" xmlns="http://www.w3.org/2000/svg">
<rect y="0.5" width="36" height="18" rx="3" fill="#FF0000"/>
<mask id="mask0_7_1682" style="mask-type:alpha" maskUnits="userSpaceOnUse" x="7" y="2" width="22" height="15">
<path d="M27.9963 10.1731C28.0082 10.2748 27.9914 10.3773 27.947 10.474C27.9026 10.5707 27.8315 10.6595 27.7383 10.7348C27.645 10.81 27.5317 10.8701 27.4054 10.9113C27.2791 10.9524 27.1426 10.9737 27.0046 10.9737H25.1035C24.8394 10.9737 24.5862 10.8961 24.3995 10.7579C24.2127 10.6197 24.1078 10.4323 24.1078 10.2368V3.23684C24.1078 3.04142 24.2127 2.854 24.3995 2.71582C24.5862 2.57763 24.8394 2.5 25.1035 2.5H26.1817C26.4309 2.49996 26.6711 2.56907 26.8548 2.69369C27.0385 2.81831 27.1523 2.98938 27.1739 3.17311L27.9963 10.1731V10.1731ZM21.121 10.4671C21.121 10.7751 20.8621 11.0507 20.4862 11.1818C19.6653 11.4685 18.267 12.0443 17.6363 12.8228C16.8233 13.8264 16.67 15.6394 16.6451 16.0546C16.6416 16.1128 16.6436 16.171 16.6332 16.2285C16.4983 16.948 14.622 16.1076 13.9026 15.219C13.5119 14.7371 13.4621 14.1038 13.5029 13.609C13.5472 13.0799 13.7568 12.5689 13.9624 12.0613L14.4005 10.9792L8.99569 10.9792C8.84186 10.9792 8.69013 10.9528 8.55238 10.9022C8.41464 10.8515 8.29464 10.7779 8.20179 10.6871C8.10895 10.5963 8.04579 10.4909 8.01727 10.379C7.98874 10.2671 7.99563 10.1519 8.0374 10.0423L10.7107 3.03642C10.7697 2.88191 10.8953 2.74589 11.0683 2.64906C11.2414 2.55223 11.4525 2.49989 11.6695 2.5H20.1253C20.3894 2.5 20.6426 2.57763 20.8293 2.71582C21.0161 2.854 21.121 3.04142 21.121 3.23684V10.4671Z" fill="white" stroke="white" stroke-linecap="round" stroke-linejoin="round"/>
</mask>
<g mask="url(#mask0_7_1682)">
<path d="M30.0816 18.3421L6.18651 18.3421L6.18651 0.657874L30.0816 0.657874L30.0816 18.3421Z" fill="black"/>
</g>
</svg>
