<svg width="36" height="19" viewBox="0 0 36 19" fill="none" xmlns="http://www.w3.org/2000/svg">
<rect y="0.5" width="36" height="18" rx="3" fill="#1EDA00"/>
<mask id="mask0_7_1722" style="mask-type:alpha" maskUnits="userSpaceOnUse" x="7" y="2" width="22" height="14">
<path d="M8.00373 8.37497C7.9918 8.2805 8.00857 8.18536 8.05298 8.09558C8.09739 8.0058 8.16847 7.92334 8.26171 7.85344C8.35495 7.78354 8.46832 7.72772 8.59462 7.68953C8.72092 7.65134 8.85739 7.6316 8.99538 7.63158H10.8965C11.1606 7.63158 11.4138 7.70366 11.6005 7.83198C11.7873 7.96029 11.8922 8.13432 11.8922 8.31579V14.8158C11.8922 14.9973 11.7873 15.1713 11.6005 15.2996C11.4138 15.4279 11.1606 15.5 10.8965 15.5H9.81827C9.56907 15.5 9.32892 15.4359 9.14523 15.3201C8.96154 15.2044 8.84768 15.0456 8.82612 14.875L8.00373 8.37497V8.37497ZM14.879 8.10197C14.879 7.81597 15.1379 7.56008 15.5138 7.43829C16.3347 7.17213 17.733 6.63742 18.3637 5.91455C19.1767 4.98266 19.33 3.29916 19.3549 2.9136C19.3584 2.85955 19.3564 2.8055 19.3668 2.75213C19.5017 2.084 21.378 2.86434 22.0974 3.6895C22.4881 4.13697 22.5379 4.72505 22.4971 5.1845C22.4528 5.67576 22.2432 6.15026 22.0376 6.62168L21.5995 7.62645H27.0043C27.1581 7.62644 27.3099 7.65093 27.4476 7.69799C27.5854 7.74505 27.7054 7.81341 27.7982 7.8977C27.891 7.98198 27.9542 8.07991 27.9827 8.18379C28.0113 8.28767 28.0044 8.39468 27.9626 8.49642L25.2893 15.0019C25.2303 15.1454 25.1047 15.2717 24.9317 15.3616C24.7586 15.4515 24.5475 15.5001 24.3305 15.5H15.8747C15.6106 15.5 15.3574 15.4279 15.1707 15.2996C14.9839 15.1713 14.879 14.9973 14.879 14.8158V8.10197Z" fill="white" stroke="white" stroke-linecap="round" stroke-linejoin="round"/>
</mask>
<g mask="url(#mask0_7_1722)">
<path d="M5.9184 0.789486H29.8135V17.2105H5.9184V0.789486Z" fill="black"/>
</g>
</svg>
