<svg width="12" height="12" viewBox="0 0 12 12" fill="none" xmlns="http://www.w3.org/2000/svg">
<path d="M9.78625 0.401124C9.90402 0.276612 10.0456 0.176973 10.2025 0.108097C10.3594 0.0392216 10.5286 0.00250718 10.6999 0.000123981C10.8713 -0.00225922 11.0414 0.0297372 11.2002 0.094222C11.359 0.158707 11.5033 0.254371 11.6244 0.375561C11.7456 0.49675 11.8413 0.641005 11.9058 0.799799C11.9703 0.958593 12.0023 1.1287 11.9999 1.30007C11.9975 1.47145 11.9608 1.6406 11.8919 1.79754C11.823 1.95448 11.7234 2.09602 11.5989 2.21379L7.84197 5.97077C7.837 5.97573 7.83305 5.98163 7.83036 5.98812C7.82766 5.99461 7.82628 6.00157 7.82628 6.00859C7.82628 6.01562 7.82766 6.02258 7.83036 6.02907C7.83305 6.03556 7.837 6.04146 7.84197 6.04642L11.5989 9.8034C11.7196 9.92209 11.8155 10.0635 11.8813 10.2195C11.947 10.3755 11.9812 10.5429 11.9819 10.7122C11.9827 10.8814 11.9498 11.0492 11.8854 11.2057C11.821 11.3622 11.7262 11.5044 11.6065 11.6241C11.4868 11.7438 11.3446 11.8386 11.1881 11.9031C11.0316 11.9676 10.8639 12.0004 10.6947 11.9998C10.5254 11.9991 10.358 11.9649 10.202 11.8992C10.046 11.8335 9.90454 11.7376 9.78582 11.6169L6.02891 7.85994C6.02395 7.85497 6.01805 7.85102 6.01156 7.84833C6.00507 7.84563 5.99811 7.84425 5.99109 7.84425C5.98406 7.84425 5.9771 7.84563 5.97061 7.84833C5.96412 7.85102 5.95822 7.85497 5.95326 7.85994L2.19635 11.6169C2.07765 11.7376 1.93624 11.8336 1.78027 11.8993C1.6243 11.9651 1.45685 11.9993 1.28759 12C1.11833 12.0007 0.950606 11.9679 0.794089 11.9035C0.637572 11.839 0.495362 11.7442 0.375661 11.6245C0.25596 11.5049 0.161138 11.3627 0.0966644 11.2062C0.0321905 11.0497 -0.000659172 10.882 1.00221e-05 10.7127C0.000679216 10.5434 0.0348541 10.376 0.100563 10.22C0.166273 10.064 0.262216 9.92255 0.382859 9.80383L4.13977 6.04685C4.14475 6.04188 4.14869 6.03599 4.15139 6.0295C4.15408 6.02301 4.15547 6.01605 4.15547 6.00902C4.15547 6.00199 4.15408 5.99504 4.15139 5.98855C4.14869 5.98205 4.14475 5.97616 4.13977 5.9712L0.382859 2.21422C0.145602 1.97312 0.0132246 1.64803 0.014562 1.30977C0.0158993 0.971509 0.150843 0.64748 0.389999 0.408263C0.629155 0.169046 0.953148 0.0340234 1.2914 0.0326063C1.62966 0.0311892 1.95477 0.163492 2.19592 0.400697L5.95283 4.15767C5.95779 4.16265 5.96369 4.1666 5.97018 4.16929C5.97667 4.17198 5.98363 4.17337 5.99066 4.17337C5.99768 4.17337 6.00464 4.17198 6.01113 4.16929C6.01762 4.1666 6.02352 4.16265 6.02848 4.15767L9.78539 0.400697L9.78625 0.401124Z" fill="black"/>
</svg>
